<?xml version="1.0" encoding="utf-8"?>
<!-- Generator: Adobe Illustrator 16.0.0, SVG Export Plug-In . SVG Version: 6.00 Build 0)  -->
<!DOCTYPE svg PUBLIC "-//W3C//DTD SVG 1.1//EN" "http://www.w3.org/Graphics/SVG/1.1/DTD/svg11.dtd">
<svg version="1.1" id="Layer_1" xmlns="http://www.w3.org/2000/svg" xmlns:xlink="http://www.w3.org/1999/xlink" x="0px" y="0px"
	 width="16px" height="16px" viewBox="0 0 16 16" enable-background="new 0 0 16 16" xml:space="preserve">
<g>
	<g>
		<path fill="#FFFFFF" d="M7.73,4.995C7.633,4.749,7.489,4.528,7.296,4.343C6.35,3.438,4.595,3.737,3.374,5.012
			c-1.221,1.275-1.616,5.047-1.19,5.386c0.261,0.209,1.167-0.024,2.147-0.475C5.238,9.506,6.209,8.901,6.795,8.29
			C7.767,7.276,8.106,5.95,7.73,4.995z M6.584,7.31C5.957,7.964,4.472,8.6,4.213,8.394C3.996,8.218,4.198,6.28,4.825,5.625
			c0.628-0.655,1.53-0.809,2.016-0.344C7.327,5.746,7.212,6.654,6.584,7.31z"/>
	</g>
	<g>
		<circle fill="#FFFFFF" cx="2.434" cy="3.031" r="0.528"/>
		<path fill="#FFFFFF" d="M2.358,2.854c0,0,2.313,0.402,2.616,1.71L4.571,4.866C4.571,4.866,3.968,3.458,2.358,2.854z"/>
	</g>
	<g>
		<circle fill="#FFFFFF" cx="4.848" cy="1.819" r="0.528"/>
		<path fill="#FFFFFF" d="M4.887,1.631c0,0,1.669,1.651,1.17,2.897L5.554,4.546C5.554,4.546,5.864,3.046,4.887,1.631z"/>
	</g>
	<g>
		<path fill="#FFFFFF" d="M8.342,6.078C8.29,6.054,8.237,6.033,8.183,6.012c0.571,0.713,0.729,1.714,0.322,2.6
			c-0.549,1.199-1.931,1.755-3.147,1.294c0.236,0.294,0.541,0.538,0.907,0.705c1.251,0.574,2.732,0.024,3.306-1.228
			C10.144,8.133,9.594,6.652,8.342,6.078z"/>
	</g>
	<g>
		<path fill="#FFFFFF" d="M9.985,9.461C9.964,9.425,9.944,9.392,9.921,9.357c-0.039,0.68-0.505,1.391-1.265,1.812
			c-1.027,0.571-2.219,0.406-2.731-0.354c-0.017,0.279,0.039,0.554,0.177,0.803c0.472,0.85,1.724,1.055,2.795,0.46
			C9.971,11.481,10.456,10.311,9.985,9.461z"/>
	</g>
	<g>
		<path fill="#FFFFFF" d="M8.896,12.502c0.001-0.036,0-0.071-0.002-0.107c-0.272,0.507-0.823,0.85-1.456,0.844
			c-0.857-0.008-1.553-0.652-1.602-1.462c-0.112,0.209-0.175,0.445-0.178,0.695c-0.008,0.857,0.71,1.561,1.604,1.567
			C8.158,14.048,8.889,13.36,8.896,12.502z"/>
	</g>
	<path fill="#FFFFFF" d="M5.703,12.812c0,0,0.503,2.012-0.604,2.464c-1.106,0.453,2.867-0.401,3.37-2.012l-1.408,0.353L5.703,12.812
		z"/>
	<path fill="#FFFFFF" d="M15.811,6.414c0,0.605-1.063,1.095-2.376,1.095c-1.312,0-4.162-0.439-4.162-1.044s2.851-1.145,4.162-1.145
		C14.747,5.319,15.811,5.809,15.811,6.414z"/>
	<path fill="#FFFFFF" d="M12.062,2.696c0.29,0.341-0.074,1.128-0.814,1.757C10.508,5.083,8.69,6.201,8.4,5.859
		c-0.291-0.341,1.057-2.013,1.797-2.642C10.937,2.589,11.772,2.355,12.062,2.696z"/>
</g>
<g>
	<path fill="#353535" d="M11.343,0H4.698L0,4.698v6.645l4.698,4.698h6.645l4.698-4.698V4.698L11.343,0z"/>
</g>
<g>
	<g>
		<path fill="#FFFFFF" d="M7.731,5.019c-0.096-0.244-0.239-0.463-0.43-0.647c-0.938-0.898-2.681-0.6-3.892,0.664
			C2.197,6.3,1.805,10.043,2.227,10.379c0.259,0.208,1.158-0.024,2.131-0.471c0.9-0.414,1.864-1.014,2.446-1.621
			C7.768,7.281,8.105,5.966,7.731,5.019z M6.594,7.315C5.972,7.965,4.498,8.596,4.242,8.39C4.026,8.217,4.227,6.293,4.849,5.643
			C5.472,4.994,6.368,4.84,6.85,5.302C7.331,5.764,7.217,6.665,6.594,7.315z"/>
	</g>
	<g>
		<circle fill="#FFFFFF" cx="2.476" cy="3.069" r="0.524"/>
		<path fill="#FFFFFF" d="M2.401,2.895c0,0,2.295,0.399,2.595,1.697l-0.399,0.3C4.597,4.891,3.999,3.494,2.401,2.895z"/>
	</g>
	<g>
		<circle fill="#FFFFFF" cx="4.872" cy="1.867" r="0.524"/>
		<path fill="#FFFFFF" d="M4.911,1.681c0,0,1.656,1.639,1.161,2.875L5.573,4.574C5.573,4.574,5.879,3.084,4.911,1.681z"/>
	</g>
	<g>
		<path fill="#FFFFFF" d="M8.338,6.093C8.287,6.069,8.234,6.048,8.181,6.027C8.748,6.735,8.903,7.728,8.5,8.608
			c-0.545,1.19-1.917,1.741-3.123,1.284c0.234,0.292,0.537,0.534,0.899,0.7c1.242,0.569,2.711,0.024,3.281-1.219
			C10.126,8.132,9.58,6.664,8.338,6.093z"/>
	</g>
	<g>
		<path fill="#FFFFFF" d="M9.969,9.45C9.948,9.414,9.928,9.381,9.905,9.347c-0.039,0.675-0.501,1.381-1.255,1.798
			c-1.019,0.567-2.202,0.403-2.71-0.352c-0.017,0.277,0.039,0.55,0.176,0.797c0.468,0.843,1.71,1.046,2.773,0.456
			C9.954,11.455,10.437,10.293,9.969,9.45z"/>
	</g>
	<g>
		<path fill="#FFFFFF" d="M8.889,12.468c0.001-0.036,0-0.071-0.002-0.107c-0.27,0.503-0.817,0.844-1.444,0.838
			c-0.851-0.009-1.541-0.647-1.59-1.45c-0.11,0.207-0.174,0.441-0.176,0.689c-0.009,0.851,0.705,1.548,1.591,1.556
			C8.156,14.002,8.882,13.319,8.889,12.468z"/>
	</g>
	<path fill="#FFFFFF" d="M5.72,12.774c0,0,0.5,1.996-0.599,2.445c-1.098,0.449,2.845-0.398,3.344-1.996l-1.397,0.35L5.72,12.774z"/>
	<path fill="#FFFFFF" d="M15.75,6.426c0,0.601-1.056,1.087-2.358,1.087c-1.301,0-4.129-0.437-4.129-1.037s2.828-1.136,4.129-1.136
		C14.694,5.34,15.75,5.826,15.75,6.426z"/>
	<path fill="#FFFFFF" d="M12.03,2.737c0.288,0.339-0.073,1.12-0.808,1.744c-0.734,0.625-2.539,1.735-2.827,1.396
		s1.05-1.997,1.784-2.622C10.913,2.631,11.742,2.399,12.03,2.737z"/>
</g>
</svg>
