<?xml version="1.0" encoding="utf-8"?>
<!-- Generator: Adobe Illustrator 16.0.0, SVG Export Plug-In . SVG Version: 6.00 Build 0)  -->
<!DOCTYPE svg PUBLIC "-//W3C//DTD SVG 1.1//EN" "http://www.w3.org/Graphics/SVG/1.1/DTD/svg11.dtd">
<svg version="1.1" id="Layer_1" xmlns="http://www.w3.org/2000/svg" xmlns:xlink="http://www.w3.org/1999/xlink" x="0px" y="0px"
	 width="24px" height="24px" viewBox="0 0 24 24" enable-background="new 0 0 24 24" xml:space="preserve">
<g>
	<path fill="#7F141E" d="M16.879,0.021H6.921L-0.12,7.062v9.958l7.042,7.042h9.958l7.042-7.042V7.062L16.879,0.021z"/>
</g>
<g>
	<g>
		<path fill="#FFFFFF" d="M11.647,7.511c-0.144-0.366-0.359-0.695-0.646-0.97c-1.406-1.346-4.017-0.9-5.833,0.995
			c-1.816,1.896-2.403,7.505-1.771,8.009c0.388,0.312,1.735-0.036,3.193-0.706c1.349-0.62,2.794-1.519,3.666-2.428
			C11.702,10.903,12.207,8.931,11.647,7.511z M9.942,10.953c-0.933,0.974-3.141,1.919-3.525,1.612
			c-0.324-0.26-0.023-3.143,0.91-4.118c0.934-0.974,2.276-1.203,2.999-0.511C11.047,8.628,10.876,9.978,9.942,10.953z"/>
	</g>
	<g>
		<circle fill="#FFFFFF" cx="3.771" cy="4.59" r="0.786"/>
		<path fill="#FFFFFF" d="M3.659,4.328c0,0,3.44,0.598,3.89,2.543L6.95,7.32C6.95,7.32,6.052,5.226,3.659,4.328z"/>
	</g>
	<g>
		<circle fill="#FFFFFF" cx="7.362" cy="2.788" r="0.785"/>
		<path fill="#FFFFFF" d="M7.419,2.509c0,0,2.482,2.456,1.74,4.309L8.412,6.844C8.412,6.844,8.872,4.613,7.419,2.509z"/>
	</g>
	<g>
		<path fill="#FFFFFF" d="M12.557,9.122C12.479,9.086,12.4,9.054,12.32,9.024c0.85,1.06,1.083,2.549,0.479,3.867
			c-0.817,1.783-2.872,2.609-4.68,1.924c0.351,0.438,0.805,0.801,1.348,1.049c1.861,0.854,4.063,0.037,4.917-1.825
			C15.236,12.177,14.418,9.976,12.557,9.122z"/>
	</g>
	<g>
		<path fill="#FFFFFF" d="M15.001,14.152c-0.031-0.054-0.062-0.104-0.096-0.154c-0.059,1.012-0.751,2.069-1.881,2.694
			c-1.527,0.851-3.299,0.604-4.062-0.527c-0.025,0.416,0.058,0.824,0.263,1.194c0.701,1.264,2.563,1.568,4.156,0.684
			C14.979,17.157,15.701,15.416,15.001,14.152z"/>
	</g>
	<g>
		<path fill="#FFFFFF" d="M13.382,18.675c0.002-0.054,0-0.105-0.003-0.16c-0.404,0.754-1.224,1.264-2.165,1.255
			c-1.274-0.012-2.309-0.97-2.382-2.173c-0.166,0.311-0.261,0.661-0.265,1.033c-0.013,1.275,1.056,2.32,2.385,2.331
			C12.283,20.975,13.371,19.951,13.382,18.675z"/>
	</g>
	<path fill="#FFFFFF" d="M8.632,19.135c0,0,0.749,2.992-0.897,3.665c-1.645,0.673,4.263-0.598,5.011-2.992l-2.094,0.524
		L8.632,19.135z"/>
	<path fill="#FFFFFF" d="M23.664,9.622c0,0.899-1.582,1.628-3.533,1.628c-1.95,0-6.189-0.653-6.189-1.553
		c0-0.899,4.239-1.703,6.189-1.703C22.082,7.993,23.664,8.722,23.664,9.622z"/>
	<path fill="#FFFFFF" d="M18.09,4.092c0.432,0.508-0.11,1.678-1.211,2.613c-1.101,0.936-3.805,2.6-4.236,2.092
		c-0.432-0.508,1.573-2.993,2.673-3.929C16.416,3.933,17.658,3.585,18.09,4.092z"/>
</g>
</svg>
