<?xml version="1.0" encoding="utf-8"?>
<!-- Generator: Adobe Illustrator 16.0.0, SVG Export Plug-In . SVG Version: 6.00 Build 0)  -->
<!DOCTYPE svg PUBLIC "-//W3C//DTD SVG 1.1//EN" "http://www.w3.org/Graphics/SVG/1.1/DTD/svg11.dtd">
<svg version="1.1" id="Layer_1" xmlns="http://www.w3.org/2000/svg" xmlns:xlink="http://www.w3.org/1999/xlink" x="0px" y="0px"
	 width="16px" height="16px" viewBox="0 0 16 16" enable-background="new 0 0 16 16" xml:space="preserve">
<g>
	<path fill="#7F141E" d="M11.248-0.042H4.552l-4.735,4.735v6.696l4.735,4.735h6.696l4.735-4.735V4.693L11.248-0.042z"/>
</g>
<g>
	<g>
		<path fill="#FFFFFF" d="M7.73,4.995C7.633,4.749,7.489,4.528,7.296,4.343C6.35,3.438,4.595,3.737,3.374,5.012
			c-1.221,1.275-1.616,5.047-1.19,5.386c0.261,0.209,1.167-0.024,2.147-0.475C5.238,9.506,6.209,8.901,6.795,8.29
			C7.767,7.276,8.106,5.95,7.73,4.995z M6.584,7.31C5.957,7.964,4.472,8.6,4.213,8.394C3.996,8.218,4.198,6.28,4.825,5.625
			c0.628-0.655,1.53-0.809,2.016-0.344C7.327,5.746,7.212,6.654,6.584,7.31z"/>
	</g>
	<g>
		<circle fill="#FFFFFF" cx="2.434" cy="3.031" r="0.528"/>
		<path fill="#FFFFFF" d="M2.358,2.854c0,0,2.313,0.402,2.616,1.71L4.571,4.866C4.571,4.866,3.968,3.458,2.358,2.854z"/>
	</g>
	<g>
		<circle fill="#FFFFFF" cx="4.848" cy="1.819" r="0.528"/>
		<path fill="#FFFFFF" d="M4.887,1.631c0,0,1.669,1.651,1.17,2.897L5.554,4.546C5.554,4.546,5.864,3.046,4.887,1.631z"/>
	</g>
	<g>
		<path fill="#FFFFFF" d="M8.342,6.078C8.29,6.054,8.237,6.033,8.183,6.012c0.571,0.713,0.729,1.714,0.322,2.6
			c-0.549,1.199-1.931,1.755-3.147,1.294c0.236,0.294,0.541,0.538,0.907,0.705c1.251,0.574,2.732,0.024,3.306-1.228
			C10.144,8.133,9.594,6.652,8.342,6.078z"/>
	</g>
	<g>
		<path fill="#FFFFFF" d="M9.985,9.461C9.964,9.425,9.944,9.392,9.921,9.357c-0.039,0.68-0.505,1.391-1.265,1.812
			c-1.027,0.571-2.219,0.406-2.731-0.354c-0.017,0.279,0.039,0.554,0.177,0.803c0.472,0.85,1.724,1.055,2.795,0.46
			C9.971,11.481,10.456,10.311,9.985,9.461z"/>
	</g>
	<g>
		<path fill="#FFFFFF" d="M8.896,12.502c0.001-0.036,0-0.071-0.002-0.107c-0.272,0.507-0.823,0.85-1.456,0.844
			c-0.857-0.008-1.553-0.652-1.602-1.462c-0.112,0.209-0.175,0.445-0.178,0.695c-0.008,0.857,0.71,1.561,1.604,1.567
			C8.158,14.048,8.889,13.36,8.896,12.502z"/>
	</g>
	<path fill="#FFFFFF" d="M5.703,12.812c0,0,0.503,2.012-0.604,2.464c-1.106,0.453,2.867-0.401,3.37-2.012l-1.408,0.353L5.703,12.812
		z"/>
	<path fill="#FFFFFF" d="M15.811,6.414c0,0.605-1.063,1.095-2.376,1.095c-1.312,0-4.162-0.439-4.162-1.044s2.851-1.145,4.162-1.145
		C14.747,5.319,15.811,5.809,15.811,6.414z"/>
	<path fill="#FFFFFF" d="M12.062,2.696c0.29,0.341-0.074,1.128-0.814,1.757C10.508,5.083,8.69,6.201,8.4,5.859
		c-0.291-0.341,1.057-2.013,1.797-2.642C10.937,2.589,11.772,2.355,12.062,2.696z"/>
</g>
</svg>
